Simulation
nRows=28
nColumns=15
endheader
time  TH_x TH_y TH_z SC_y  SC_z  SC_x  AC_y  AC_z  AC_x  GH_y  GH_z  GH_yy  EL_x  PS_y
0.0  0.000000  0.000000  0.000000  -27.549367437425936  3.5970814489931238  5.325895916796365  51.42649856128116  1.942450337089132  -1.9656269391849306  -16.32730491172004  8.217606451539048  64.15000720449214  20.586968669553436  120.000000
0.031  0.000000  0.000000  0.000000  -26.662329322869773  3.940615924980729  4.625765425606867  50.23103863074515  2.5570660381610697  -1.2726123360931307  -23.53245160423001  9.549765960977018  71.0569572786747  20.21900868352913  120.000000
0.062  0.000000  0.000000  0.000000  -25.428741581106813  4.2737424576863265  3.91266168627566  49.10615253694752  2.916372977026718  -0.5431455494494029  -27.714247298910376  10.848144089216854  74.83856007404036  19.887038837002635  120.000000
0.093  0.000000  0.000000  0.000000  -24.351537612746366  4.490613043822209  3.3116639657745703  48.16671250529699  3.0501137933874887  0.17042645884565089  -29.78937032438951  11.991712855230137  76.41822496625966  19.581864685105824  120.000000
0.124  0.000000  0.000000  0.000000  -23.503789960198215  4.608595751845148  2.7878766161516575  47.58984900877806  3.032542884471185  0.7711467031945817  -30.235499267486098  12.90886891214793  76.27502245712176  19.300178778715452  120.000000
0.155  0.000000  0.000000  0.000000  -22.928660412954155  4.6934827015988745  2.2966770213377763  47.42005869595231  2.9589112347275424  1.2225848453450097  -29.54430619326936  13.637933178039145  74.90315824187961  19.02551214547878  120.000000
0.186  0.000000  0.000000  0.000000  -22.65268674596955  4.746728690204562  1.86994197322172  47.45770686329655  2.912483676649592  1.580493995475211  -28.523755095779578  14.331482579881287  73.0958680034622  18.709181069134033  120.000000
0.217  0.000000  0.000000  0.000000  -22.63307818177412  4.739709671556196  1.550023755554792  47.56783622070547  2.924131973735986  1.8887022274464518  -27.634311733958548  15.091428650934933  71.29857161458942  18.32515343904459  120.000000
0.248  0.000000  0.000000  0.000000  -22.817159538053254  4.680500980523651  1.3281567702619468  47.7436319843705  2.996869624658245  2.1574711151285366  -26.893687264203407  15.943125773302258  69.51809878427296  17.89173756307521  120.000000
0.279  0.000000  0.000000  0.000000  -23.10281913845362  4.596597854211695  1.1705332304729306  47.96425595301866  3.1244520966783274  2.3891890820920407  -26.313581692255877  16.90179800088654  67.7514399046627  17.426499413216824  120.000000
0.31  0.000000  0.000000  0.000000  -23.46081561430987  4.4978931678674225  1.0686415226232469  48.205912122825495  3.29855299967524  2.5906493184405806  -25.864714472567528  17.97024785268528  65.95785925544625  16.947666646785283  120.000000
0.34099999999999997  0.000000  0.000000  0.000000  -23.846051144600853  4.404252288556563  1.0038927275550762  48.44574950852338  3.508054874428905  2.7686933319864275  -25.505743794539015  19.14011929424322  64.09124775558584  16.469782648907405  120.000000
0.372  0.000000  0.000000  0.000000  -24.245452723108194  4.326714991657743  0.9712083374599824  48.668202950302586  3.7451583305445415  2.9260754060980716  -25.198216113477184  20.398823016504313  62.12087738456664  16.00418737680441  120.000000
0.403  0.000000  0.000000  0.000000  -24.64564322700011  4.283621555164678  0.9626414433284154  48.86000847238401  4.001855675741873  3.0671162600061206  -24.918697331783722  21.72980998728363  60.04142718909461  15.557035895113396  120.000000
0.434  0.000000  0.000000  0.000000  -25.041805284941248  4.283134944990248  0.9790388903735092  49.01193950793265  4.27300336436209  3.1941607025252714  -24.6600000596014  23.11760029659934  57.87548810965866  15.131197960760831  120.000000
0.46499999999999997  0.000000  0.000000  0.000000  -25.43393756865489  4.334261016416393  1.0226359913466654  49.11929450009414  4.553104016957356  3.310411619602975  -24.425210611424617  24.545469251902517  55.66087760831195  14.726707192570867  120.000000
0.496  0.000000  0.000000  0.000000  -25.820820551749698  4.440810180029167  1.0970897167608207  49.18194762032751  4.838585505686274  3.4171863697590648  -24.224490538790675  25.99890615004835  53.446911840370895  14.341867627330494  120.000000
0.527  0.000000  0.000000  0.000000  -26.209345051340307  4.60290666720288  1.2089179363006965  49.203417302439426  5.12626157266499  3.5161333011474594  -24.072082109910003  27.464773048943204  51.28364562209028  13.972571578242121  120.000000
0.558  0.000000  0.000000  0.000000  -26.600008932641945  4.819383647471915  1.3630820290042613  49.19093544535694  5.413575653430555  3.6086405283950795  -23.981282156541234  28.931609373370016  49.217942818632075  13.613641977780237  120.000000
0.589  0.000000  0.000000  0.000000  -27.000110525279414  5.083245249660659  1.5676546378382181  49.15426427291775  5.699543104846866  3.6960427795684865  -23.96390190485182  30.39062699766989  47.287390905183265  13.258755304721282  120.000000
0.62  0.000000  0.000000  0.000000  -27.409241076118942  5.390292589488187  1.8276752080879548  49.10477504098912  5.982797994674345  3.7801442441879853  -24.027341243686525  31.83364328686885  45.52047811335271  12.902958404202854  120.000000
0.651  0.000000  0.000000  0.000000  -27.830247837772482  5.732005785778572  2.149160749084021  49.05317673259481  6.264210385272969  3.8625425741650026  -24.176109287278834  33.255512067917486  43.93455806467585  12.543040044507382  120.000000
0.6819999999999999  0.000000  0.000000  0.000000  -28.26029743190303  6.103506280325899  2.5361318788727663  49.00923778966645  6.54325552264622  3.945290821752891  -24.409214430488717  34.650785308035566  42.53659058211077  12.179986853181079  120.000000
0.713  0.000000  0.000000  0.000000  -28.697030109210555  6.498272587373466  2.9909380641611314  48.980055851029384  6.821402059180237  4.030157061539537  -24.72234941239122  36.0167519397102  41.323085344915235  11.818425691989345  120.000000
0.744  0.000000  0.000000  0.000000  -29.135580173675233  6.911964436525965  3.5161069960190146  48.971077965660825  7.0977398864492045  4.118923678916496  -25.106062424980063  37.349976046421766  40.28125094769552  11.466455850359493  120.000000
0.775  0.000000  0.000000  0.000000  -29.571260412726932  7.339959749735912  4.110973657715099  48.985569828923964  7.372965839912015  4.213172700862398  -25.547930009838478  38.64952401503747  39.39039564494764  11.133167026530227  120.000000
0.806  0.000000  0.000000  0.000000  -29.998786449550693  7.77814122991679  4.77592808410167  49.02591043037114  7.645573292134685  4.314774638237102  -26.0319753654149  39.91355800560494  38.62353923831331  10.826585221040407  120.000000
0.837  0.000000  0.000000  0.000000  -30.4150011548654  8.221598679406794  5.507393719782712  49.0937489764957  7.915777803909402  4.425355591219698  -26.540041671333018  41.14251276812834  37.94925088746955  10.551432920648555  120.000000
